<?xml version="1.0" standalone="no"?>
<!DOCTYPE svg PUBLIC "-//W3C//DTD SVG 1.1//EN"
  "http://www.w3.org/Graphics/SVG/1.1/DTD/svg11.dtd">
<svg version="1.1" xmlns="http://www.w3.org/2000/svg" xmlns:xlink="http://www.w3.org/1999/xlink" width="1792" height="1063" viewBox="-992 -32 1792 1063" id="ccdiagram"><filter id="grayscale"><feColorMatrix type="matrix" values="0.3333 0.3333 0.3333 0 0 0.3333 0.3333 0.3333 0 0 0.3333 0.3333 0.3333 0 0 0 0 0 1 0"></feColorMatrix></filter><defs><style type="text/css">@import url('https://fonts.googleapis.com/css?family=Open+Sans:400,700|Inconsolata:400');</style></defs><g><g style="pointer-events: none;"><g><pattern id="gridPatternMinor" x="0" y="37" width="128" height="74" patternUnits="userSpaceOnUse"><path d="M 0 0 L 128 74" stroke="#eee" stroke-width="1"></path><path d="M 128 0 L 0 74" stroke="#eee" stroke-width="1"></path></pattern><polygon points="0 0, 768 444, -192 999, -960 555" fill="url(#gridPatternMinor)"></polygon></g><polygon points="-960 555, -960 565, -192 1009, -192 999" stroke-linejoin="round" stroke="#54626f" stroke-width="1" fill="#f9f9f9"></polygon><polygon points="-192 1009, 768 454, 768 444, -192 999" stroke-linejoin="round" stroke="#54626f" stroke-width="1" fill="#e2e2e2"></polygon></g><g pointer-events="auto"><g opacity="1"><g><g><polygon points="-224 211, -32 322, -32 359, -480 618, -544 618, -736 507, -736 470, -288 211" fill="#000000" opacity="0.2"></polygon><polygon points="-224 204, -32 315, -32 352, -480 611, -544 611, -736 500, -736 463, -288 204" fill="#ffffff" stroke-width="2" stroke="#818181"></polygon><polygon points="-256 222, -64 333, -512 592, -704 481" fill="#e6e7e8" stroke-width="0" stroke="#818181"></polygon></g></g></g><g opacity="1"><g id="21f1558a-58c1-4751-9250-0a6b6ef7da58"><svg x="-256" y="259" overflow="visible"><g fill="#609062"><polygon points="0 0, 128 74, -256 296, -384 222" stroke="#609062" stroke-width="40"></polygon></g></svg></g></g><g opacity="1"><g><g><polygon points="160 507, 352 618, 352 655, -48 886, -112 886, -304 775, -304 738, 96 507" fill="#000000" opacity="0.2"></polygon><polygon points="160 500, 352 611, 352 648, -48 879, -112 879, -304 768, -304 731, 96 500" fill="#ffffff" stroke-width="2" stroke="#818181"></polygon><polygon points="128 518, 320 629, -80 860, -272 749" fill="#e6e7e8" stroke-width="0" stroke="#818181"></polygon></g></g></g><g opacity="1"><g><g><polygon points="224 222, 640 463, 640 500, 512 574, 448 574, 32 333, 32 296, 160 222" fill="#ffffff" stroke-width="2" stroke="#818181"></polygon><polygon points="192 241, 608 481, 480 555, 64 315" fill="#e6e7e8" stroke-width="0" stroke="#818181"></polygon></g></g></g></g><g style="pointer-events: none;"><g><pattern id="gridPatternMajor" x="0" y="37" width="128" height="74" patternUnits="userSpaceOnUse"><path d="M 64 0 L 128 37 64 74 0 37 z" stroke="#54626f" stroke-width="1" fill="none"></path></pattern><polygon points="0 0, 768 444, -192 999, -960 555" fill="url(#gridPatternMajor)"></polygon></g></g><g pointer-events="auto"></g><g></g><g pointer-events="auto"></g><g></g><g pointer-events="auto"></g><g pointer-events="none"></g><g pointer-events="auto"><g><g cursor="cell"><line x1="-368" y1="435" x2="-282" y2="485" stroke="red" stroke-width="8" opacity="0"></line><line x1="-368" y1="435" x2="-282" y2="485" stroke="#000000" stroke-width="2" stroke-linecap="round"></line><polygon points="-272 490, -281 475, -284 483, -298 485, -272 490" stroke-linejoin="round" fill="#000000" stroke="#000000" stroke-width="1"></polygon></g></g><g><g cursor="cell"><line x1="-80" y1="749" x2="-67" y2="711" stroke="red" stroke-width="8" opacity="0"></line><line x1="-80" y1="749" x2="-67" y2="711" stroke="#000000" stroke-width="2" stroke-linecap="round"></line><polygon points="-64 703, -80 716, -67 713, -58 718, -64 703" stroke-linejoin="round" fill="#000000" stroke="#000000" stroke-width="1"></polygon></g></g><g><g cursor="cell"><line x1="224" y1="574" x2="176" y2="564" stroke="red" stroke-width="8" opacity="0"></line><line x1="224" y1="574" x2="176" y2="564" stroke="#000000" stroke-width="2" stroke-linecap="round"></line></g></g><g><g cursor="cell"><line x1="-480" y1="463" x2="-442" y2="440" stroke="red" stroke-width="8" opacity="0"></line><line x1="-480" y1="463" x2="-442" y2="440" stroke="#000000" stroke-width="2" stroke-linecap="round"></line><polygon points="-432 435, -458 440, -444 442, -441 450, -432 435" stroke-linejoin="round" fill="#000000" stroke="#000000" stroke-width="1"></polygon></g></g><g><g cursor="cell"><line x1="-240" y1="361" x2="-255" y2="473" stroke="red" stroke-width="8" opacity="0"></line><line x1="-240" y1="361" x2="-255" y2="473" stroke="#000000" stroke-width="2" stroke-linecap="round"></line><polygon points="-256 481, -243 467, -255 471, -266 466, -256 481" stroke-linejoin="round" fill="#000000" stroke="#000000" stroke-width="1"></polygon></g></g><g><g cursor="cell"><line x1="176" y1="564" x2="161" y2="359" stroke="red" stroke-width="8" opacity="0"></line><line x1="176" y1="564" x2="161" y2="359" stroke="#000000" stroke-width="2" stroke-linecap="round"></line><polygon points="160 352, 150 366, 161 362, 173 365, 160 352" stroke-linejoin="round" fill="#000000" stroke="#000000" stroke-width="1"></polygon></g></g><g><g cursor="cell"><line x1="-512" y1="518" x2="-254" y2="527" stroke="red" stroke-width="8" opacity="0"></line><line x1="-512" y1="518" x2="-254" y2="527" stroke="#000000" stroke-width="2" stroke-linecap="round"></line><polygon points="-240 527, -264 520, -258 527, -265 533, -240 527" stroke-linejoin="round" fill="#000000" stroke="#000000" stroke-width="1"></polygon></g></g><g><g cursor="cell"><line x1="-240" y1="527" x2="-179" y2="705" stroke="red" stroke-width="8" opacity="0"></line><line x1="-240" y1="527" x2="-179" y2="705" stroke="#000000" stroke-width="2" stroke-linecap="round"></line><polygon points="-176 712, -170 697, -179 702, -192 700, -176 712" stroke-linejoin="round" fill="#000000" stroke="#000000" stroke-width="1"></polygon></g></g><g><g cursor="cell"><line x1="224" y1="352" x2="262" y2="374" stroke="red" stroke-width="8" opacity="0"></line><line x1="224" y1="352" x2="262" y2="374" stroke="#000000" stroke-width="2" stroke-linecap="round"></line><polygon points="272 379, 263 364, 260 372, 246 374, 272 379" stroke-linejoin="round" fill="#000000" stroke="#000000" stroke-width="1"></polygon></g></g><g><g cursor="cell"><line x1="224" y1="574" x2="404" y2="522" stroke="red" stroke-width="8" opacity="0"></line><line x1="224" y1="574" x2="404" y2="522" stroke="#000000" stroke-width="2" stroke-linecap="round"></line><polygon points="416 518, 389 518, 400 523, 399 530, 416 518" stroke-linejoin="round" fill="#000000" stroke="#000000" stroke-width="1"></polygon></g></g><g><g cursor="cell"><line x1="-336" y1="379" x2="-314" y2="366" stroke="red" stroke-width="8" opacity="0"></line><line x1="-336" y1="379" x2="-314" y2="366" stroke="#000000" stroke-width="2" stroke-linecap="round"></line><polygon points="-304 361, -330 366, -316 368, -313 376, -304 361" stroke-linejoin="round" fill="#000000" stroke="#000000" stroke-width="1"></polygon></g></g><g><g cursor="cell"><line x1="14" y1="658" x2="116" y2="632" stroke="red" stroke-width="8" opacity="0"></line><line x1="14" y1="658" x2="116" y2="632" stroke="#000000" stroke-width="2" stroke-linecap="round"></line><polygon points="128 629, 101 629, 112 633, 110 641, 128 629" stroke-linejoin="round" fill="#000000" stroke="#000000" stroke-width="1"></polygon></g></g></g><g pointer-events="auto"><g opacity="1"><g id="844c7696-c613-4998-bb2b-988812f27487" transform="translate(0 0)"><g><polygon points="192 259, 256 296, 192 333, 128 296" fill="#ececed"></polygon><polygon points="128 333, 192 370, 192 333, 128 296" fill="#d2d2d4" stroke="#83838a"></polygon><polygon points="192 370, 256 333, 256 296, 192 333" fill="#b8b8bb" stroke="#83838a"></polygon><polygon points="192 259, 128 296, 128 333, 192 370, 256 333, 256 296" fill="none" stroke="#000000" stroke-width="2"></polygon></g></g></g><g opacity="1"><g id="e95d98ab-9679-427f-9c65-0cbdefa87f9f" transform="translate(0 0)"><g><polygon points="336 342, 400 379, 336 416, 272 379" fill="#ececed"></polygon><polygon points="272 416, 336 453, 336 416, 272 379" fill="#d2d2d4" stroke="#83838a"></polygon><polygon points="336 453, 400 416, 400 379, 336 416" fill="#b8b8bb" stroke="#83838a"></polygon><polygon points="336 342, 272 379, 272 416, 336 453, 400 416, 400 379" fill="none" stroke="#000000" stroke-width="2"></polygon></g></g></g><g opacity="1"><g id="b0cbad64-1d75-4411-87f0-16225efe17ab" transform="translate(0 0)"><g><polygon points="448 407, 544 463, 480 500, 384 444" fill="#ececed"></polygon><polygon points="384 481, 480 537, 480 500, 384 444" fill="#d2d2d4" stroke="#83838a"></polygon><polygon points="480 537, 544 500, 544 463, 480 500" fill="#b8b8bb" stroke="#83838a"></polygon><polygon points="448 407, 384 444, 384 481, 480 537, 544 500, 544 463" fill="none" stroke="#000000" stroke-width="2"></polygon></g></g></g><g opacity="1"><g id="55ad0b77-ce4c-4d01-8535-753c8dc56e84" transform="translate(0 0)"><g><polygon points="-272 268, -208 305, -272 342, -336 305" fill="#ececed"></polygon><polygon points="-336 342, -272 379, -272 342, -336 305" fill="#d2d2d4" stroke="#83838a"></polygon><polygon points="-272 379, -208 342, -208 305, -272 342" fill="#b8b8bb" stroke="#83838a"></polygon><polygon points="-272 268, -336 305, -336 342, -272 379, -208 342, -208 305" fill="none" stroke="#000000" stroke-width="2"></polygon></g></g></g><g opacity="1"><g id="409e2b98-fc7d-4677-bcc5-91a2f4a6cd07" transform="translate(0 0)"><g><polygon points="160 537, 224 574, 160 611, 96 574" fill="#ececed"></polygon><polygon points="96 611, 160 648, 160 611, 96 574" fill="#d2d2d4" stroke="#83838a"></polygon><polygon points="160 648, 224 611, 224 574, 160 611" fill="#b8b8bb" stroke="#83838a"></polygon><polygon points="160 537, 96 574, 96 611, 160 648, 224 611, 224 574" fill="none" stroke="#000000" stroke-width="2"></polygon></g></g></g><g opacity="1"><g id="65b7da6d-dea5-40fd-9595-6651e06c93a4" transform="translate(0 0)"><g><polygon points="-400 342, -336 379, -400 416, -464 379" fill="#ececed"></polygon><polygon points="-464 416, -400 453, -400 416, -464 379" fill="#d2d2d4" stroke="#83838a"></polygon><polygon points="-400 453, -336 416, -336 379, -400 416" fill="#b8b8bb" stroke="#83838a"></polygon><polygon points="-400 342, -464 379, -464 416, -400 453, -336 416, -336 379" fill="none" stroke="#000000" stroke-width="2"></polygon></g></g></g><g opacity="1"><g id="40553b93-0b9e-483b-af02-2e31ba80aca7" transform="translate(0 0)"><svg x="-78" y="562" height="148.981" width="91.956" viewBox="0 0 24.33 39.418"><g transform="translate(240.35 -115.335)"><path d="M-240.082 146.018v4.445l6.973 4.025v-4.445z" fill="#d2d2d4" fill-rule="evenodd"></path><path d="M-233.11 150.043l9.858-.003v4.445l-9.857.003z" fill="#d2d2d4" fill-rule="evenodd"></path><path d="M-223.252 150.04l6.967-4.027v4.445l-6.967 4.028z" fill="#b8b8bb" fill-rule="evenodd"></path><path d="M-223.252 150.04v4.445" fill="none" stroke="#83838a" stroke-width=".267"></path><path d="M302.99-2468.894l-36.732 47.87-59.823 7.876-47.87-36.732-7.875-59.823 36.732-47.87 59.822-7.876 47.87 36.732z" fill="#848586" stroke="#83838a" stroke-width="2.151" transform="matrix(.0995 .07485 -.12957 .05747 -573.282 269.258)"></path><path d="M-240.082 139.12v4.445l6.973 4.025v-4.445z" fill="#d2d2d4" fill-rule="evenodd"></path><path d="M-233.11 143.145l9.858-.003v4.445l-9.857.003z" fill="#d2d2d4" fill-rule="evenodd"></path><path d="M-223.252 143.143l6.967-4.028v4.445l-6.967 4.028z" fill="#b8b8bb" fill-rule="evenodd"></path><path d="M302.99-2468.894l-36.732 47.87-59.823 7.876-47.87-36.732-7.875-59.823 36.732-47.87 59.822-7.876 47.87 36.732z" fill="#848586" stroke="#83838a" stroke-width="2.151" transform="matrix(.0995 .07485 -.12957 .05747 -573.282 262.36)"></path><path d="M-240.082 132.222v4.445l6.973 4.025v-4.445z" fill="#d2d2d4" fill-rule="evenodd"></path><path d="M-233.11 136.247l9.858-.003v4.445l-9.857.003z" fill="#d2d2d4" fill-rule="evenodd"></path><path d="M-223.252 136.245l6.967-4.028v4.445l-6.967 4.028z" fill="#b8b8bb" fill-rule="evenodd"></path><path d="M302.99-2468.894l-36.732 47.87-59.823 7.876-47.87-36.732-7.875-59.823 36.732-47.87 59.822-7.876 47.87 36.732z" fill="#848586" stroke="#83838a" stroke-width="2.151" transform="matrix(.0995 .07485 -.12957 .05747 -573.282 255.462)"></path><path d="M-240.082 125.324v4.445l6.973 4.025v-4.445z" fill="#d2d2d4" fill-rule="evenodd"></path><path d="M-233.11 129.349l9.858-.003v4.445l-9.857.003z" fill="#d2d2d4" fill-rule="evenodd"></path><path d="M-223.252 129.347l6.967-4.028v4.445l-6.967 4.028z" fill="#b8b8bb" fill-rule="evenodd"></path><path d="M-223.252 129.347l-9.857.002-6.973-4.025-.003-5.694 6.967-4.028 9.857-.002 6.973 4.025.003 5.694z" fill="#ececed"></path><path d="M-240.082 125.324l6.964 4.074 9.866-.053 6.967-4.026M-233.118 129.398l.008 4.396M-223.252 129.345v4.445" fill="none" stroke="#83838a" stroke-width=".267"></path><path d="M-240.085 119.63l.003 10.139 6.972 4.025 9.857-.003 6.966-4.027-.002-10.14-6.972-4.025-9.857.003z" fill="none" stroke="#000000" stroke-width=".529"></path><path d="M-223.252 136.242v4.446M-233.11 136.247v4.445" fill="none" stroke="#83838a" stroke-width=".267"></path><path d="M-240.082 132.222v4.445l6.973 4.025 9.857-.003 6.966-4.027.002-4.446-6.968 4.026-9.865.054z" fill="none" stroke="#000000" stroke-width=".529"></path><path d="M-233.11 143.145v4.445M-223.252 143.141v4.446" fill="none" stroke="#83838a" stroke-width=".267"></path><path d="M-240.082 139.12v4.445l6.973 4.025 9.857-.003 6.966-4.026.002-4.446-6.968 4.028-9.857.003z" fill="none" stroke="#000000" stroke-width=".529"></path><path d="M-240.082 146.018v4.445l6.973 4.025 9.857-.003 6.967-4.026v-4.445l-6.967 4.026-9.857.003z" fill="none" stroke="#000000" stroke-width=".529"></path><path d="M-233.11 150.043v4.445" fill="none" stroke="#83838a" stroke-width=".267"></path><circle cx="-9.268" cy="254.217" fill="#4286c5" r="5.832" transform="scale(1.22475 .7071) rotate(45)"></circle><path d="M-227.78 122.24q.75.433 1.536.73.788.298 1.43.362l-.538.31q-.218.127-.73.046-.513-.08-1.181-.34-.669-.26-1.327-.64-.657-.38-1.108-.766-.45-.386-.59-.681-.138-.296.08-.422l.537-.31q.111.37.626.825.516.454 1.265.887zm-2.428 1.403q.749.432 1.536.73.788.297 1.43.361l-.538.31q-.218.127-.73.046-.513-.08-1.182-.34-.668-.26-1.326-.64-.657-.38-1.108-.766-.45-.386-.59-.681-.139-.296.08-.422l.537-.31q.11.37.626.825.516.454 1.265.887zm1.214-.701q.749.432 1.536.73.788.297 1.43.361l-.538.31q-.218.126-.73.046-.513-.08-1.181-.34-.669-.26-1.327-.64-.657-.38-1.108-.766-.45-.386-.59-.681-.138-.296.08-.422l.537-.31q.111.37.626.825.516.454 1.265.887zm3.642-2.103q.657.38 1.108.766.45.386.59.681.139.296-.08.422l-.404.234q-.218.126-.73.045-.513-.08-1.181-.34-.67-.26-1.327-.64-.657-.38-1.108-.766-.45-.386-.59-.681-.139-.296.08-.422l.404-.234q.218-.126.73-.045.513.08 1.182.34.668.26 1.326.64z" fill="#ffffff"></path></g></svg></g></g><g opacity="1"><g id="da065e0f-a312-4740-af51-5d7ada70c245" transform="translate(0 0)"><g><polygon points="-544 426, -480 463, -544 500, -608 463" fill="#ececed"></polygon><polygon points="-608 500, -544 537, -544 500, -608 463" fill="#d2d2d4" stroke="#83838a"></polygon><polygon points="-544 537, -480 500, -480 463, -544 500" fill="#b8b8bb" stroke="#83838a"></polygon><polygon points="-544 426, -608 463, -608 500, -544 537, -480 500, -480 463" fill="none" stroke="#000000" stroke-width="2"></polygon></g></g></g><g opacity="1"><g id="cfda4562-6c39-413a-a20c-542a0297cd93" transform="translate(0 0)"><svg x="-176" y="691" height="113.438" width="96" viewBox="0 0 25.4 30.014"><g transform="translate(412.599 -86.957)"><path d="M-412.333 102.348v4.786l8.29 4.785h8.289l8.29-4.785v-4.786l-8.29-4.786h-8.29z" fill="#3c3c3c" fill-rule="evenodd"></path><path d="M-395.754 111.92l8.29-4.786v4.785l-8.29 4.786z" fill="#090909" fill-rule="evenodd"></path><path d="M-404.044 111.92h8.29v4.785h-8.29z" fill="#232323" fill-rule="evenodd"></path><path d="M-412.333 107.134v4.785l8.29 4.786v-4.786z" fill="#232323" fill-rule="evenodd"></path><path d="M-412.333 107.134l8.29 4.785h8.289l8.29-4.785M-404.044 111.92v4.785M-395.754 111.92v4.785" fill="none" stroke="#a2a2a2" stroke-width=".26588"></path><path d="M-412.333 102.348v9.571l8.29 4.786h8.289l8.29-4.786v-9.571l-8.29-4.786h-8.29z" fill="none" stroke="#000000" stroke-width=".53176"></path><path d="M-412.333 97.178v4.786l8.29 4.786h8.289l8.29-4.786v-4.786l-8.29-4.786h-8.29z" fill="#3c3c3c" fill-rule="evenodd"></path><path d="M-395.754 106.75l8.29-4.786v4.786l-8.29 4.786z" fill="#090909" fill-rule="evenodd"></path><path d="M-404.044 106.75h8.29v4.786h-8.29z" fill="#232323" fill-rule="evenodd"></path><path d="M-412.333 101.964v4.786l8.29 4.786v-4.786z" fill="#232323" fill-rule="evenodd"></path><path d="M-412.333 101.964l8.29 4.786h8.289l8.29-4.786M-404.044 106.75v4.786M-395.754 106.75v4.786" fill="none" stroke="#a2a2a2" stroke-width=".266"></path><path d="M-412.333 97.178v9.572l8.29 4.786h8.289l8.29-4.786v-9.572l-8.29-4.786h-8.29z" fill="none" stroke="#000000" stroke-width=".532"></path><path d="M-412.333 92.01v4.785l8.29 4.786h8.289l8.29-4.786v-4.786l-8.29-4.786h-8.29z" fill="#3c3c3c" fill-rule="evenodd"></path><path d="M-395.754 101.58l8.29-4.785v4.786l-8.29 4.786z" fill="#090909" fill-rule="evenodd"></path><path d="M-404.044 101.58h8.29v4.787h-8.29z" fill="#232323" fill-rule="evenodd"></path><path d="M-412.333 96.795v4.786l8.29 4.786v-4.786z" fill="#232323" fill-rule="evenodd"></path><path d="M-412.333 96.795l8.29 4.786h8.289l8.29-4.786M-404.044 101.58v4.787M-395.754 101.58v4.787" fill="none" stroke="#a2a2a2" stroke-width=".266"></path><path d="M-412.333 92.01v9.57l8.29 4.787h8.289l8.29-4.786v-9.572l-8.29-4.786h-8.29z" fill="none" stroke="#000000" stroke-width=".532"></path><circle cx="-136.478" cy="325.284" fill="#f4b934" r="5.801" transform="scale(1.22475 .7071) rotate(45)"></circle><g font-family="sans-serif" font-size="3.191" stroke-width=".266" style="line-height: 0%;"><path d="M-399.242 93.57l.48-.601q.222-.275.177-.448-.04-.17-.467-.416l-.507-.293 1.065-.614.937.541q.825.476.92.934.1.46-.417 1.114l-3.452 4.39-1.622-.937 1.654-2.121-3.729.923-1.622-.936z" fill="#ffffff" font-family="Droid Serif" font-size="9.971" style="line-height: 1.25;"></path></g></g></svg></g></g></g><g pointer-events="auto"><g opacity="1"><g id="700a5ead-bdb0-431b-a385-2e2e7b0bbf2b" transform="translate(0 0)"><svg x="336" y="379" overflow="visible"><g transform="scale(0.4245000000000002) matrix(0.707 -0.409 0.707 0.409 0 0)"><svg x="-100" y="-100" overflow="visible"><image xlink:href="https://images.cloudcraft.co/ee074130-aa44-4b6c-be5f-0129beaf557a/grafana_release_icon.png" width="200" height="200"></image></svg></g></svg></g></g><g opacity="1"><g id="141d40a2-5527-430b-8d30-a4795b4539b3" transform="translate(0 0)"><svg x="192" y="296" overflow="visible"><g transform="scale(0.2830000000000002) matrix(0.707 0.409 -0.707 0.409 0 0)"><svg x="-128" y="-128" overflow="visible"><image xlink:href="https://images.cloudcraft.co/ee074130-aa44-4b6c-be5f-0129beaf557a/prometheus-282488.png" width="256" height="256"></image></svg></g></svg></g></g><g opacity="1"><g id="c84da30e-d2b6-478a-8f26-188b4ef83785" transform="translate(0 0)"><svg x="160" y="574" overflow="visible"><g transform="scale(0.1415000000000002) matrix(0.707 0.409 -0.707 0.409 0 0)"><svg x="-210" y="-210" overflow="visible"><image xlink:href="https://images.cloudcraft.co/ee074130-aa44-4b6c-be5f-0129beaf557a/api-settings.png" width="420" height="420"></image></svg></g></svg></g></g></g><g pointer-events="auto"><g opacity="1"><g id="81ed4b77-83a0-4697-8e49-95afc4940d54" transform="translate(0 0)"><svg x="-240" y="527" overflow="visible"><g transform="scale(1.25) "><circle cx="0" cy="0" fill="rgba(0, 0, 0, 0)" r="40"></circle><svg width="100" height="100" x="-50" y="-50" style="fill: rgb(255, 255, 255);"><svg data-name="Layer 1" xmlns="http://www.w3.org/2000/svg" width="100" height="100" viewBox="0 0 100 100"><g><path fill="#b7ca9d" d="M86.24 65.43L50.01 60.1l-36.25 5.33L49.99 91l36.25-25.57z"></path><path fill="#4b612c" d="M21.02 64.81l6.12 1.83 14.39-22.07L27.14 22.5l-6.12 2.35v39.96z"></path><path fill="#759c3e" d="M48.82 62.91l-21.68 3.81V22.5l21.68 4.88v35.53z"></path><path fill="#4b612c" d="M39.15 70.33L30.7 67.8V13.23L39.15 9l25.04 32.28-25.04 29.05z"></path><path fill="#759c3e" d="M68.11 63.61L39.15 70.4V9l28.96 11.29v43.32z"></path><path fill="#4b612c" d="M49.99 78.28L13.76 65.43v7.46L49.99 91V78.28z"></path><path fill="#759c3e" d="M86.24 72.88L49.99 91V78.28l36.25-12.85v7.45z"></path><path fill="#b7ca9d" d="M76.06 53.08h-8.79l-25.04 1.7L50 73.59l26.06-20.51z"></path><path fill="#4b612c" d="M42.23 71.26L50 73.59l-.01-17.97-7.76-.84v16.48z"></path><path fill="#759c3e" d="M76.06 53.08l-26.07 2.54.01 17.97 26.06-7.85V53.08z"></path></g></svg></svg></g></svg></g></g></g><g pointer-events="auto"><g opacity="1"><g id="00b6a350-6162-4a6b-98d9-c2d7c3264901" transform="translate(0 0)"><svg x="-736" y="463" overflow="visible"><text stroke="#ffffff" stroke-width="4" font-family="Open Sans" y="36.5" font-size="25pt" fill="#4286c5" font-weight="bold" transform="matrix(0.707 -0.409 0.707 0.409 0 0)" xml:space="preserve"><tspan x="8" dy="0">CodePipeline</tspan></text><text font-family="Open Sans" y="36.5" font-size="25pt" fill="#4286c5" font-weight="bold" transform="matrix(0.707 -0.409 0.707 0.409 0 0)" xml:space="preserve"><tspan x="8" dy="0">CodePipeline</tspan></text></svg></g></g><g opacity="1"><g id="310f8705-3ad3-4a4d-9e70-9796633de189" transform="translate(0 0)"><svg x="-224" y="574" overflow="visible"><text stroke="#ffffff" stroke-width="4" font-family="Open Sans" y="36.5" font-size="25pt" fill="#4286c5" font-weight="bold" transform="matrix(0.707 -0.409 0.707 0.409 0 0)" xml:space="preserve"><tspan x="8" dy="0">CloudWatch</tspan></text><text font-family="Open Sans" y="36.5" font-size="25pt" fill="#4286c5" font-weight="bold" transform="matrix(0.707 -0.409 0.707 0.409 0 0)" xml:space="preserve"><tspan x="8" dy="0">CloudWatch</tspan></text></svg></g></g><g opacity="1"><g id="24891915-9c49-4d01-817e-c52341921485" transform="translate(0 0)"><svg x="208" y="213" overflow="visible"><text stroke="#ffffff" stroke-width="4" font-family="Open Sans" y="36.5" font-size="25pt" fill="#4286c5" font-weight="bold" transform="matrix(0.707 0.409 -0.707 0.409 0 0)" xml:space="preserve"><tspan x="8" dy="0">Prometheus</tspan></text><text font-family="Open Sans" y="36.5" font-size="25pt" fill="#4286c5" font-weight="bold" transform="matrix(0.707 0.409 -0.707 0.409 0 0)" xml:space="preserve"><tspan x="8" dy="0">Prometheus</tspan></text></svg></g></g><g opacity="1"><g id="fba32461-7670-4b5e-bf4d-02f59a3dcdfe" transform="translate(0 0)"><svg x="368" y="305" overflow="visible"><text stroke="#ffffff" stroke-width="4" font-family="Open Sans" y="36.5" font-size="25pt" fill="#4286c5" font-weight="bold" transform="matrix(0.707 0.409 -0.707 0.409 0 0)" xml:space="preserve"><tspan x="8" dy="0">Grafana</tspan></text><text font-family="Open Sans" y="36.5" font-size="25pt" fill="#4286c5" font-weight="bold" transform="matrix(0.707 0.409 -0.707 0.409 0 0)" xml:space="preserve"><tspan x="8" dy="0">Grafana</tspan></text></svg></g></g><g opacity="1"><g id="16c1f9df-2321-4020-9d92-c2093b2e2791" transform="translate(0 0)"><svg x="432" y="416" overflow="visible"><text stroke="#ffffff" stroke-width="4" font-family="Open Sans" y="36.5" font-size="25pt" fill="#f44336" font-weight="bold" transform="matrix(0.707 0.409 -0.707 0.409 0 0)" xml:space="preserve"><tspan x="8" dy="0">GMUD</tspan></text><text font-family="Open Sans" y="36.5" font-size="25pt" fill="#f44336" font-weight="bold" transform="matrix(0.707 0.409 -0.707 0.409 0 0)" xml:space="preserve"><tspan x="8" dy="0">GMUD</tspan></text></svg></g></g><g opacity="1"><g id="874aad3e-0838-403e-bde5-534eb421f300" transform="translate(0 0)"><svg x="-592" y="472" overflow="visible"><text stroke="#ffffff" stroke-width="4" font-family="Open Sans" y="30.799999999999997" font-size="20pt" fill="#3f51b5" font-weight="bold" transform="matrix(0.707 -0.409 0.707 0.409 0 0)" xml:space="preserve"><tspan x="8" dy="0">Clone</tspan></text><text font-family="Open Sans" y="30.799999999999997" font-size="20pt" fill="#3f51b5" font-weight="bold" transform="matrix(0.707 -0.409 0.707 0.409 0 0)" xml:space="preserve"><tspan x="8" dy="0">Clone</tspan></text></svg></g></g><g opacity="1"><g id="0fc193f7-fde6-43cd-b50b-36c0186612c4" transform="translate(0 0)"><svg x="-448" y="389" overflow="visible"><text stroke="#ffffff" stroke-width="4" font-family="Open Sans" y="30.799999999999997" font-size="20pt" fill="#3f51b5" font-weight="bold" transform="matrix(0.707 -0.409 0.707 0.409 0 0)" xml:space="preserve"><tspan x="8" dy="0">build</tspan></text><text font-family="Open Sans" y="30.799999999999997" font-size="20pt" fill="#3f51b5" font-weight="bold" transform="matrix(0.707 -0.409 0.707 0.409 0 0)" xml:space="preserve"><tspan x="8" dy="0">build</tspan></text></svg></g></g><g opacity="1"><g id="5d79c8b7-104f-4def-a87d-f56a061197f8" transform="translate(0 0)"><svg x="-320" y="315" overflow="visible"><text stroke="#ffffff" stroke-width="4" font-family="Open Sans" y="26.24" font-size="16pt" fill="#3f51b5" font-weight="bold" transform="matrix(0.707 -0.409 0.707 0.409 0 0)" xml:space="preserve"><tspan x="8" dy="0">deploy</tspan></text><text font-family="Open Sans" y="26.24" font-size="16pt" fill="#3f51b5" font-weight="bold" transform="matrix(0.707 -0.409 0.707 0.409 0 0)" xml:space="preserve"><tspan x="8" dy="0">deploy</tspan></text></svg></g></g></g><g></g></g></svg>